<svg width="2880" height="10060" viewBox="0 0 2880 10060" fill="none" xmlns="http://www.w3.org/2000/svg">
<path d="M2988.51 491.432V1107.66L823.522 726.724L1608.15 2.28835L2988.51 491.432Z" stroke="#F4F4F9" stroke-width="4"/>
<path d="M926.384 1196.31L-72.9213 1422.44L44.5836 745.047L926.384 1196.31ZM1888.09 1973.16L1270.07 1543.89L1189.74 1118.49L2030.59 1258.95L2525.89 1602.42L2778.94 2096.57L1888.09 1973.16Z" stroke="#F4F4F9" stroke-width="4"/>
<path d="M725.228 2598.32L419.659 1824.03L853.942 1603.43L1557.65 2174.7L725.228 2598.32Z" stroke="#F4F4F9" stroke-width="4"/>
<path d="M2556.78 3691.49L1942.34 2673.18L3066.39 2276.96L2994.63 3841.4L2556.78 3691.49Z" stroke="#F4F4F9" stroke-width="4"/>
<path d="M2004.62 5082.08L1476.65 4206.21L1776.86 3744.02L2257.13 4097.97L2004.62 5082.08Z" stroke="#F4F4F9" stroke-width="4"/>
<path d="M176.541 7672.74L1175.85 7890.55L1305.66 8426.16L718.51 8532.13L176.541 7672.74Z" stroke="#F4F4F9" stroke-width="4"/>
<path d="M341.475 5653.01L509.905 4533.92L918.07 4467.39L1459.18 5556.48L341.475 5653.01Z" stroke="#F4F4F9" stroke-width="4"/>
<path d="M2128.79 8345.13L3258.36 8416.39L3359.86 8817.25L2321.38 9450.23L2128.79 8345.13Z" stroke="#F4F4F9" stroke-width="4"/>
<path d="M3042.52 5982.45V7631.92L1959.65 6693.6L2290.63 5592.11L3042.52 5982.45Z" stroke="#F4F4F9" stroke-width="4"/>
<path d="M-45.8311 7187.28L20.9116 5900.38L1470.87 6621.8L893.383 7187.28H-45.8311Z" stroke="#F4F4F9" stroke-width="4"/>
<path d="M-81.4601 4004.58L26.8982 3386.31L792.336 2861.43L1429.04 3185.72L875.145 3799.33L-81.4601 4004.58Z" stroke="#F4F4F9" stroke-width="4"/>
<path d="M1123.96 10054L-525.599 10037.4L423.702 8964.15L1521.91 9306.2L1123.96 10054Z" stroke="#F4F4F9" stroke-width="4"/>
</svg>
