<svg width="2880" height="10060" viewBox="0 0 2880 10060" fill="none" xmlns="http://www.w3.org/2000/svg">
<path d="M2711.61 618.503L2573.12 1062.71L741.556 726.749L1526.07 2.42255L2711.61 618.503Z" stroke="#F4F4F9" stroke-width="4"/>
<path d="M844.379 1196.31L-154.926 1422.44L-37.4207 745.047L844.379 1196.31ZM1806.09 1973.16L1188.06 1543.89L1107.74 1118.49L1948.59 1258.95L2443.88 1602.42L2696.94 2096.57L1806.09 1973.16Z" stroke="#F4F4F9" stroke-width="4"/>
<path d="M643.223 2598.32L337.654 1824.03L771.937 1603.43L1475.64 2174.7L643.223 2598.32Z" stroke="#F4F4F9" stroke-width="4"/>
<path d="M2474.84 3691.49L1860.4 2673.18L2984.45 2276.96L2912.7 3841.4L2474.84 3691.49Z" stroke="#F4F4F9" stroke-width="4"/>
<path d="M1922.68 5082.08L1394.71 4206.21L1694.92 3744.02L2175.19 4097.97L1922.68 5082.08Z" stroke="#F4F4F9" stroke-width="4"/>
<path d="M94.6012 7672.74L1093.91 7890.55L1223.72 8426.16L636.571 8532.13L94.6012 7672.74Z" stroke="#F4F4F9" stroke-width="4"/>
<path d="M259.471 5653.01L427.901 4533.92L836.065 4467.39L1377.18 5556.48L259.471 5653.01Z" stroke="#F4F4F9" stroke-width="4"/>
<path d="M2046.85 8345.13L3176.42 8416.39L3277.92 8817.25L2239.44 9450.23L2046.85 8345.13Z" stroke="#F4F4F9" stroke-width="4"/>
<path d="M2960.58 5982.45V7631.92L1877.71 6693.6L2208.69 5592.11L2960.58 5982.45Z" stroke="#F4F4F9" stroke-width="4"/>
<path d="M-127.835 7187.28L-61.0928 5900.38L1388.87 6621.8L811.379 7187.28H-127.835Z" stroke="#F4F4F9" stroke-width="4"/>
<path d="M-163.464 4004.58L-55.1062 3386.31L710.331 2861.43L1347.04 3185.72L793.141 3799.33L-163.464 4004.58Z" stroke="#F4F4F9" stroke-width="4"/>
<path d="M1042.02 10054L-607.539 10037.4L341.763 8964.15L1439.97 9306.2L1042.02 10054Z" stroke="#F4F4F9" stroke-width="4"/>
</svg>
