<svg width="64" height="36" viewBox="0 0 64 36" fill="none" xmlns="http://www.w3.org/2000/svg">
<path fill-rule="evenodd" clip-rule="evenodd" d="M45.5321 0C47.955 0 49.9219 1.97 49.9219 4.39667V31.6C49.9219 34.0267 47.955 35.9967 45.5321 35.9967H38.0571V22.4367H42.7331L43.6218 16.6267H38.0571V12.8567C38.0571 11.2667 38.8359 9.71667 41.3287 9.71667H43.8581V4.77333C43.8581 4.77333 41.5616 4.38 39.3651 4.38C34.7823 4.38 31.7869 7.16333 31.7869 12.2V16.6267H26.6916V22.4367H31.7869V36H18.3679C15.9451 36 13.9781 34.03 13.9781 31.6033V4.39667C13.9781 1.97 15.9451 0 18.3679 0H45.5321Z" fill="#3777FF"/>
</svg>
