<svg width="64" height="36" viewBox="0 0 64 36" fill="none" xmlns="http://www.w3.org/2000/svg">
<path fill-rule="evenodd" clip-rule="evenodd" d="M45.5321 0C47.955 0 49.9219 1.97 49.9219 4.39667V31.6C49.9219 34.0267 47.955 35.9967 45.5321 35.9967H18.3679C15.9451 35.9967 13.9781 34.0267 13.9781 31.6V4.39667C13.9781 1.97 15.9451 0 18.3679 0H45.5321ZM31.95 5.69667C28.6119 5.69667 28.1959 5.71 26.8846 5.77C25.5767 5.83 24.6847 6.03667 23.9026 6.34333C23.0939 6.65667 22.4083 7.08 21.726 7.76333C21.0438 8.44667 20.6244 9.13333 20.3082 9.94333C20.0054 10.7267 19.7957 11.62 19.7358 12.93C19.6759 14.2433 19.6626 14.66 19.6626 18.0033C19.6626 21.3467 19.6759 21.7633 19.7358 23.0767C19.7957 24.3867 20.0021 25.28 20.3082 26.0633C20.6211 26.8733 21.0438 27.56 21.726 28.2433C22.4083 28.9267 23.0939 29.3467 23.9026 29.6633C24.6847 29.9667 25.5767 30.1767 26.8846 30.2367C28.1959 30.2967 28.6119 30.31 31.95 30.31C35.2881 30.31 35.7041 30.2967 37.0154 30.2367C38.3234 30.1767 39.2153 29.97 39.9974 29.6633C40.8062 29.35 41.4918 28.9267 42.174 28.2433C42.8563 27.56 43.2756 26.8733 43.5918 26.0633C43.8947 25.28 44.1043 24.3867 44.1642 23.0767C44.2241 21.7633 44.2375 21.3467 44.2375 18.0033C44.2375 14.66 44.2241 14.2433 44.1642 12.93C44.1043 11.62 43.898 10.7267 43.5918 9.94333C43.279 9.13333 42.8563 8.44667 42.174 7.76333C41.4918 7.08 40.8062 6.66 39.9974 6.34333C39.2153 6.04 38.3234 5.83 37.0154 5.77C35.7041 5.71 35.2881 5.69667 31.95 5.69667ZM31.95 7.91333C35.2316 7.91333 35.6176 7.92667 36.9156 7.98667C38.1137 8.04 38.7627 8.24333 39.1953 8.41C39.7678 8.63333 40.1771 8.9 40.6065 9.33C41.0358 9.76 41.3021 10.17 41.525 10.7433C41.6948 11.1767 41.8945 11.83 41.9477 13.0267C42.0076 14.3233 42.0209 14.7133 42.0209 18C42.0209 21.2867 42.0076 21.6733 41.9477 22.9733C41.8945 24.1733 41.6914 24.8233 41.525 25.2567C41.3021 25.83 41.0358 26.24 40.6065 26.67C40.1771 27.1 39.7678 27.3667 39.1953 27.59C38.7627 27.76 38.1104 27.96 36.9156 28.0133C35.6209 28.0733 35.2316 28.0867 31.95 28.0867C28.6685 28.0867 28.2824 28.0733 26.9845 28.0133C25.7863 27.96 25.1374 27.7567 24.7047 27.59C24.1323 27.3667 23.7229 27.1 23.2936 26.67C22.8642 26.24 22.598 25.83 22.375 25.2567C22.2053 24.8233 22.0056 24.17 21.9523 22.9733C21.8924 21.6767 21.8791 21.2867 21.8791 18C21.8791 14.7133 21.8924 14.3267 21.9523 13.0267C22.0056 11.8267 22.2086 11.1767 22.375 10.7433C22.598 10.17 22.8642 9.76 23.2936 9.33C23.7229 8.9 24.1323 8.63333 24.7047 8.41C25.1374 8.24 25.7897 8.04 26.9845 7.98667C28.2824 7.92333 28.6685 7.91333 31.95 7.91333ZM31.95 11.68C28.4655 11.68 25.6399 14.51 25.6399 18C25.6399 21.49 28.4655 24.32 31.95 24.32C35.4346 24.32 38.2601 21.49 38.2601 18C38.2601 14.51 35.4346 11.68 31.95 11.68ZM31.95 22.1C29.6869 22.1 27.8564 20.2633 27.8564 18C27.8564 15.7367 29.6869 13.9 31.95 13.9C34.2131 13.9 36.0436 15.7367 36.0436 18C36.0436 20.2633 34.2131 22.1 31.95 22.1ZM39.9808 11.4333C39.9808 12.25 39.3218 12.91 38.5064 12.91C37.691 12.91 37.0321 12.25 37.0321 11.4333C37.0321 10.6167 37.691 9.95667 38.5064 9.95667C39.3218 9.95667 39.9808 10.6167 39.9808 11.4333Z" fill="#3777FF"/>
</svg>
