<svg width="65" height="36" viewBox="0 0 65 36" fill="none" xmlns="http://www.w3.org/2000/svg">
<path fill-rule="evenodd" clip-rule="evenodd" d="M45.8527 0C48.2926 0 50.2734 1.97 50.2734 4.39667V31.6C50.2734 34.0267 48.2926 35.9967 45.8527 35.9967H18.4973C16.0573 35.9967 14.0765 34.0267 14.0765 31.6V4.39667C14.0765 1.97 16.0573 0 18.4973 0H45.8527ZM25.4216 29.7633V13.89H20.1161V29.76H25.4216V29.7633ZM44.5456 29.7633V20.6633C44.5456 15.79 41.928 13.52 38.439 13.52C35.6237 13.52 34.3635 15.06 33.6597 16.14V13.8933H28.3575C28.4279 15.3833 28.3575 29.7633 28.3575 29.7633H33.6597V20.9C33.6597 20.4267 33.6932 19.95 33.834 19.6133C34.2161 18.6667 35.0908 17.6833 36.5555 17.6833C38.4726 17.6833 39.2434 19.14 39.2434 21.2733V29.7633H44.5456V29.7633ZM22.804 6.23667C20.9875 6.23667 19.8044 7.42333 19.8044 8.98C19.8044 10.5033 20.9539 11.7233 22.7336 11.7233H22.7671C24.6172 11.7233 25.7668 10.5033 25.7668 8.98C25.7333 7.42667 24.6206 6.24 22.804 6.23667Z" fill="#3777FF"/>
</svg>
