<svg width="64" height="36" viewBox="0 0 64 36" fill="none" xmlns="http://www.w3.org/2000/svg">
<path fill-rule="evenodd" clip-rule="evenodd" d="M45.5321 0C47.955 0 49.9219 1.97 49.9219 4.39667V31.6C49.9219 34.0267 47.955 35.9967 45.5321 35.9967H18.3679C15.9451 35.9967 13.9781 34.0267 13.9781 31.6V4.39667C13.9781 1.97 15.9451 0 18.3679 0H45.5321ZM44.1609 9.65667H37.1752L32.1963 22.0967L26.5352 9.65667H19.2066V10.0833L21.5663 12.93C21.7992 13.14 21.9157 13.4467 21.8858 13.7567V24.9433C21.9557 25.3467 21.8259 25.76 21.543 26.0533L18.8871 29.28V29.7067H26.4154V29.28L23.7628 26.0533C23.4766 25.76 23.3435 25.35 23.3967 24.9433V15.2667L30.0031 29.7033H30.7685L36.4463 15.2667V26.7733C36.4463 27.08 36.4463 27.14 36.2466 27.34L34.2065 29.3233V29.75H44.1176V29.3233L42.1474 27.3867C41.9743 27.2533 41.8878 27.0367 41.9244 26.82V12.5867C41.8878 12.37 41.9743 12.1533 42.1474 12.02L44.1642 10.0833V9.65667H44.1609Z" fill="#3777FF"/>
</svg>
