<svg width="64" height="36" viewBox="0 0 64 36" fill="none" xmlns="http://www.w3.org/2000/svg">
<path fill-rule="evenodd" clip-rule="evenodd" d="M45.5321 0C47.955 0 49.9219 1.97 49.9219 4.39667V31.6C49.9219 34.0267 47.955 35.9967 45.5321 35.9967H18.3679C15.9451 35.9967 13.9781 34.0267 13.9781 31.6V4.39667C13.9781 1.97 15.9451 0 18.3679 0H45.5321ZM27.7033 29.85C37.2451 29.85 42.4636 21.93 42.4636 15.0667C42.4636 14.84 42.4636 14.6133 42.4536 14.4C43.4653 13.6667 44.3473 12.75 45.0462 11.7067C44.121 12.1167 43.1192 12.3967 42.0675 12.5267C43.1425 11.88 43.9612 10.8667 44.3473 9.65C43.3455 10.2433 42.2373 10.6733 41.0558 10.91C40.1106 9.89667 38.7627 9.27333 37.2684 9.27333C34.4062 9.27333 32.0831 11.6 32.0831 14.4667C32.0831 14.8767 32.1264 15.2733 32.2229 15.6533C27.9097 15.4367 24.089 13.37 21.5297 10.2233C21.087 10.99 20.8308 11.8833 20.8308 12.83C20.8308 14.63 21.746 16.2233 23.1438 17.15C22.2951 17.13 21.4964 16.89 20.7975 16.5033V16.5667C20.7975 19.0867 22.5847 21.18 24.961 21.6633C24.5316 21.7833 24.069 21.8467 23.5931 21.8467C23.2603 21.8467 22.9375 21.8133 22.6146 21.75C23.2703 23.82 25.1873 25.3167 27.4571 25.36C25.6832 26.75 23.4433 27.58 21.0138 27.58C20.5945 27.58 20.1851 27.56 19.7757 27.5033C22.0455 28.99 24.7779 29.85 27.7033 29.85Z" fill="#3777FF"/>
</svg>
