<svg width="95" height="53" viewBox="0 0 95 53" fill="none" xmlns="http://www.w3.org/2000/svg">
<path d="M0 0H27.9412V27.9983H0V0Z" fill="#04724D"/>
<path d="M33.5294 0H61.4706V27.9983H33.5294V0Z" fill="#B8DBD9"/>
<path d="M67.0588 0H95V27.9983H67.0588V0Z" fill="#3777FF"/>
<path d="M11.5869 48.1572L11.1841 46.7496H11.0269C10.7061 47.2614 10.2509 47.6584 9.66153 47.9406C9.07215 48.2162 8.40091 48.354 7.64781 48.354C6.35771 48.354 5.38523 48.0095 4.73035 47.3205C4.07548 46.6249 3.74805 45.6275 3.74805 44.3282V37.1525H6.74408V43.5801C6.74408 44.3741 6.88488 44.9713 7.16648 45.3715C7.44807 45.7653 7.89666 45.9621 8.51224 45.9621C9.35047 45.9621 9.95623 45.6832 10.3295 45.1255C10.7028 44.5611 10.8894 43.6293 10.8894 42.33V37.1525H13.8855V48.1572H11.5869Z" fill="black"/>
<path d="M27.1662 48.1572H24.1702V41.7296C24.1702 40.9356 24.0294 40.3417 23.7478 39.948C23.4662 39.5477 23.0176 39.3475 22.4021 39.3475C21.5638 39.3475 20.9581 39.6297 20.5848 40.194C20.2115 40.7518 20.0249 41.6804 20.0249 42.9797V48.1572H17.0288V37.1525H19.3176L19.7204 38.5601H19.8874C20.2213 38.0285 20.6797 37.6282 21.2626 37.3592C21.852 37.0836 22.5199 36.9458 23.2665 36.9458C24.5435 36.9458 25.5127 37.2936 26.1741 37.9892C26.8355 38.6782 27.1662 39.6756 27.1662 40.9815V48.1572Z" fill="black"/>
<path d="M30.123 34.3078C30.123 33.3301 30.6665 32.8412 31.7536 32.8412C32.8407 32.8412 33.3842 33.3301 33.3842 34.3078C33.3842 34.7737 33.2467 35.1379 32.9717 35.4004C32.7032 35.6563 32.2972 35.7843 31.7536 35.7843C30.6665 35.7843 30.123 35.2921 30.123 34.3078ZM33.2467 48.1572H30.2507V37.1525H33.2467V48.1572Z" fill="black"/>
<path d="M44.0619 44.8892C44.0619 46.0179 43.669 46.8775 42.8832 47.4681C42.1039 48.0587 40.9349 48.354 39.3763 48.354C38.5774 48.354 37.8963 48.2982 37.3331 48.1867C36.7699 48.0817 36.2428 47.9242 35.7516 47.7142V45.2337C36.3082 45.4962 36.9337 45.7161 37.6278 45.8932C38.3285 46.0704 38.9441 46.159 39.4746 46.159C40.5616 46.159 41.1052 45.844 41.1052 45.2141C41.1052 44.9778 41.0331 44.7875 40.8891 44.6431C40.745 44.4922 40.4962 44.3249 40.1425 44.1411C39.7889 43.9508 39.3174 43.731 38.728 43.4817C37.8832 43.1273 37.2611 42.7992 36.8616 42.4973C36.4687 42.1955 36.1805 41.851 35.9972 41.4638C35.8204 41.0701 35.732 40.5878 35.732 40.0169C35.732 39.0391 36.1085 38.2845 36.8616 37.7529C37.6213 37.2148 38.6953 36.9458 40.0836 36.9458C41.4064 36.9458 42.6932 37.2345 43.944 37.812L43.0403 39.9775C42.4902 39.7412 41.9762 39.5477 41.4981 39.3967C41.02 39.2458 40.5322 39.1703 40.0345 39.1703C39.1504 39.1703 38.7084 39.4099 38.7084 39.8889C38.7084 40.1579 38.8491 40.3909 39.1307 40.5878C39.4189 40.7846 40.0443 41.0766 41.007 41.4638C41.8648 41.8116 42.4935 42.1364 42.893 42.4383C43.2925 42.7401 43.5871 43.0879 43.7771 43.4817C43.967 43.8754 44.0619 44.3446 44.0619 44.8892Z" fill="black"/>
<path d="M50.8595 48.354C47.4411 48.354 45.7318 46.474 45.7318 42.7139C45.7318 40.8437 46.1968 39.4164 47.1267 38.4321C48.0566 37.4412 49.3893 36.9458 51.1247 36.9458C52.3952 36.9458 53.5346 37.1951 54.5431 37.6939L53.6591 40.0169C53.1876 39.8266 52.7488 39.6723 52.3428 39.5542C51.9368 39.4295 51.5307 39.3672 51.1247 39.3672C49.5661 39.3672 48.7868 40.4762 48.7868 42.6942C48.7868 44.8466 49.5661 45.9228 51.1247 45.9228C51.701 45.9228 52.2347 45.8473 52.7259 45.6964C53.217 45.5389 53.7082 45.2961 54.1993 44.968V47.537C53.7147 47.8455 53.2236 48.0587 52.7259 48.1768C52.2347 48.295 51.6126 48.354 50.8595 48.354Z" fill="black"/>
<path d="M63.7277 48.1572L63.1481 46.661H63.0696C62.5653 47.2975 62.0447 47.7405 61.5077 47.9898C60.9773 48.2326 60.2831 48.354 59.4252 48.354C58.3709 48.354 57.5392 48.0522 56.9301 47.4485C56.3277 46.8447 56.0264 45.9851 56.0264 44.8695C56.0264 43.7015 56.4324 42.8418 57.2445 42.2906C58.0631 41.7329 59.2942 41.4244 60.938 41.3654L62.8436 41.3063V40.824C62.8436 39.7084 62.2739 39.1507 61.1344 39.1507C60.2569 39.1507 59.2255 39.4164 58.0402 39.948L57.048 37.9203C58.3119 37.2575 59.7133 36.9261 61.2523 36.9261C62.7258 36.9261 63.8554 37.2476 64.6413 37.8907C65.4271 38.5338 65.82 39.5116 65.82 40.824V48.1572H63.7277ZM62.8436 43.0584L61.6845 43.0978C60.8135 43.124 60.1652 43.2815 59.7395 43.5702C59.3139 43.859 59.101 44.2986 59.101 44.8892C59.101 45.7357 59.5856 46.159 60.5549 46.159C61.249 46.159 61.8024 45.9589 62.215 45.5586C62.6341 45.1583 62.8436 44.6267 62.8436 43.964V43.0584Z" fill="black"/>
<path d="M74.9457 48.354C73.6556 48.354 72.6438 47.8848 71.9103 46.9465H71.7532C71.8579 47.8651 71.9103 48.3967 71.9103 48.541V53H68.9143V37.1525H71.3504L71.7728 38.5798H71.9103C72.611 37.4904 73.649 36.9458 75.0242 36.9458C76.3209 36.9458 77.3359 37.4478 78.0694 38.4518C78.8028 39.4558 79.1696 40.8502 79.1696 42.6351C79.1696 43.8098 78.996 44.8302 78.649 45.6964C78.3084 46.5626 77.8205 47.2221 77.1853 47.6748C76.5501 48.1276 75.8035 48.354 74.9457 48.354ZM74.0616 39.3475C73.3216 39.3475 72.7813 39.5772 72.4408 40.0365C72.1002 40.4893 71.9234 41.2407 71.9103 42.2906V42.6155C71.9103 43.7966 72.0839 44.6431 72.431 45.155C72.7846 45.6668 73.3412 45.9228 74.1009 45.9228C75.4434 45.9228 76.1146 44.8138 76.1146 42.5958C76.1146 41.513 75.9476 40.7026 75.6136 40.1645C75.2862 39.6199 74.7688 39.3475 74.0616 39.3475Z" fill="black"/>
<path d="M86.1931 39.0818C85.5578 39.0818 85.0601 39.2852 84.7 39.692C84.3398 40.0923 84.1335 40.6632 84.0811 41.4047H88.2854C88.2723 40.6632 88.0791 40.0923 87.7058 39.692C87.3325 39.2852 86.8283 39.0818 86.1931 39.0818ZM86.6155 48.354C84.8473 48.354 83.4655 47.8651 82.4701 46.8874C81.4747 45.9096 80.977 44.525 80.977 42.7336C80.977 40.8896 81.4354 39.4656 82.3523 38.4616C83.2756 37.4511 84.5493 36.9458 86.1734 36.9458C87.7255 36.9458 88.9337 37.3887 89.7981 38.2746C90.6626 39.1605 91.0948 40.3843 91.0948 41.9461V43.4029H84.0124C84.0451 44.256 84.2972 44.922 84.7687 45.4011C85.2402 45.8801 85.9017 46.1196 86.753 46.1196C87.4144 46.1196 88.0398 46.0507 88.6292 45.9129C89.2186 45.7751 89.8342 45.5553 90.4759 45.2534V47.5764C89.952 47.8389 89.3921 48.0325 88.7962 48.1572C88.2003 48.2884 87.4733 48.354 86.6155 48.354Z" fill="black"/>
</svg>
