<svg width="64" height="36" viewBox="0 0 64 36" fill="none" xmlns="http://www.w3.org/2000/svg">
<path fill-rule="evenodd" clip-rule="evenodd" d="M45.5321 0C47.955 0 49.9219 1.97 49.9219 4.39667V31.6C49.9219 34.0267 47.955 35.9967 45.5321 35.9967H18.3679C15.9451 35.9967 13.9781 34.0267 13.9781 31.6V4.39667C13.9781 1.97 15.9451 0 18.3679 0H45.5321ZM44.0577 12.35C43.7682 11.26 42.9095 10.4033 41.8246 10.1133C39.8543 9.58333 31.95 9.58333 31.95 9.58333C31.95 9.58333 24.0457 9.58333 22.0755 10.1133C20.9872 10.4033 20.1319 11.2633 19.8423 12.35C19.3131 14.3233 19.3131 18.4433 19.3131 18.4433C19.3131 18.4433 19.3131 22.5633 19.8423 24.5367C20.1319 25.6267 20.9905 26.4833 22.0755 26.7733C24.0457 27.3 31.95 27.3 31.95 27.3C31.95 27.3 39.8543 27.3 41.8246 26.77C42.9129 26.48 43.7682 25.62 44.0577 24.5333C44.5869 22.56 44.5869 18.44 44.5869 18.44C44.5869 18.44 44.5869 14.3233 44.0577 12.35ZM29.424 22.24V14.6433L35.9904 18.44L29.424 22.24Z" fill="#3777FF"/>
</svg>
